<?xml version="1.0" encoding="UTF-8" standalone="no"?><!DOCTYPE svg PUBLIC "-//W3C//DTD SVG 1.1//EN" "http://www.w3.org/Graphics/SVG/1.1/DTD/svg11.dtd"><svg xmlns="http://www.w3.org/2000/svg" xmlns:xlink="http://www.w3.org/1999/xlink" version="1.1" width="680" height="490" viewBox="0 0 680 490">
<desc>Created with SVGMaker Editor 3.0.0</desc>
<defs>
</defs>
<text transform="matrix(1 0 0 1 165.4033 18.2407)" style="fill: rgb(1,1,1); text-decoration-thickness: 6.6667%; white-space: pre" x="-66.09668" y="3.76968" font-family="'Anthropic Sans', -apple-system, BlinkMacSystemFont, 'Segoe UI', sans-serif" font-size="12" font-style="normal" font-weight="400"><tspan x="-66.09668" y="3.76968">N</tspan><tspan x="-56.12012" y="3.76968">o</tspan><tspan x="-48.08887" y="3.76968">d</tspan><tspan x="-40.02246" y="3.76968">e</tspan><tspan x="-32.74707" y="3.76968">.</tspan><tspan x="-29.14551" y="3.76968">j</tspan><tspan x="-25.23926" y="3.76968">s</tspan><tspan x="-19.14746" y="3.76968" style="white-space: pre; "> </tspan><tspan x="-14.86035" y="3.76968">·</tspan><tspan x="-11.25879" y="3.76968" style="white-space: pre; "> </tspan><tspan x="-6.97168" y="3.76968">p</tspan><tspan x="1.08301" y="3.76968">l</tspan><tspan x="4.98926" y="3.76968">u</tspan><tspan x="12.78027" y="3.76968">g</tspan><tspan x="20.84668" y="3.76968">i</tspan><tspan x="24.75293" y="3.76968">n</tspan><tspan x="32.54395" y="3.76968" style="white-space: pre; "> </tspan><tspan x="36.83105" y="3.76968">l</tspan><tspan x="40.7373" y="3.76968">a</tspan><tspan x="47.84277" y="3.76968">y</tspan><tspan x="54.64941" y="3.76968">e</tspan><tspan x="61.9248" y="3.76968">r</tspan></text>
<text transform="matrix(1 0 0 1 495.3203 18.2407)" style="fill: rgb(1,1,1); text-decoration-thickness: 6.6667%; white-space: pre" x="-71.67969" y="3.76968" font-family="'Anthropic Sans', -apple-system, BlinkMacSystemFont, 'Segoe UI', sans-serif" font-size="12" font-style="normal" font-weight="400"><tspan x="-71.67969" y="3.76968">B</tspan><tspan x="-63.80078" y="3.76968">r</tspan><tspan x="-58.62891" y="3.76968">o</tspan><tspan x="-50.59766" y="3.76968">w</tspan><tspan x="-40.92578" y="3.76968">s</tspan><tspan x="-34.83398" y="3.76968">e</tspan><tspan x="-27.55859" y="3.76968">r</tspan><tspan x="-22.38672" y="3.76968" style="white-space: pre; "> </tspan><tspan x="-18.09961" y="3.76968">·</tspan><tspan x="-14.49805" y="3.76968" style="white-space: pre; "> </tspan><tspan x="-10.21094" y="3.76968">r</tspan><tspan x="-5.03906" y="3.76968">u</tspan><tspan x="2.75195" y="3.76968">n</tspan><tspan x="10.54297" y="3.76968">t</tspan><tspan x="15.60938" y="3.76968">i</tspan><tspan x="19.51563" y="3.76968">m</tspan><tspan x="30.85156" y="3.76968">e</tspan><tspan x="38.12695" y="3.76968" style="white-space: pre; "> </tspan><tspan x="42.41406" y="3.76968">l</tspan><tspan x="46.32031" y="3.76968">a</tspan><tspan x="53.42578" y="3.76968">y</tspan><tspan x="60.23242" y="3.76968">e</tspan><tspan x="67.50781" y="3.76968">r</tspan></text>
<rect transform="translate(0,0)" style="stroke: rgb(222,220,209); stroke-opacity: 0.3; stroke-width: 0.5; fill: rgb(38,38,36)" x="20" y="30" rx="14" ry="14" width="290" height="250"/>
<rect transform="translate(0,0)" style="stroke: rgb(222,220,209); stroke-opacity: 0.3; stroke-width: 0.5; fill: rgb(38,38,36)" x="330" y="30" rx="14" ry="14" width="330" height="300"/>
<rect transform="translate(0,0)" style="stroke: rgb(93,202,165); stroke-width: 0.5; fill: rgb(8,80,65)" x="35" y="48" rx="8" ry="8" width="260" height="56"/>
<text transform="matrix(1 0 0 1 165.2871 63.6141)" style="fill: rgb(159,225,203); text-decoration-thickness: 6.6667%; white-space: pre" x="-39.71289" y="4.39796" font-family="'Anthropic Sans', -apple-system, BlinkMacSystemFont, 'Segoe UI', sans-serif" font-size="14" font-style="normal" font-weight="500"><tspan x="-39.71289" y="4.39796">V</tspan><tspan x="-29.73047" y="4.39796">i</tspan><tspan x="-25.07324" y="4.39796">t</tspan><tspan x="-19.09668" y="4.39796">e</tspan><tspan x="-10.65918" y="4.39796" style="white-space: pre; "> </tspan><tspan x="-5.81055" y="4.39796">p</tspan><tspan x="3.625" y="4.39796">l</tspan><tspan x="8.28223" y="4.39796">u</tspan><tspan x="17.45117" y="4.39796">g</tspan><tspan x="26.88672" y="4.39796">i</tspan><tspan x="31.54395" y="4.39796">n</tspan></text>
<text transform="matrix(1 0 0 1 165.0596 84.2407)" style="fill: rgb(93,202,165); text-decoration-thickness: 6.6667%; white-space: pre" x="-112.44043" y="3.76968" font-family="'Anthropic Sans', -apple-system, BlinkMacSystemFont, 'Segoe UI', sans-serif" font-size="12" font-style="normal" font-weight="400"><tspan x="-112.44043" y="3.76968">c</tspan><tspan x="-105.89746" y="3.76968">o</tspan><tspan x="-97.86621" y="3.76968">n</tspan><tspan x="-90.0752" y="3.76968">f</tspan><tspan x="-85.31934" y="3.76968">i</tspan><tspan x="-81.41309" y="3.76968">g</tspan><tspan x="-73.34668" y="3.76968" style="white-space: pre; "> </tspan><tspan x="-69.05957" y="3.76968">·</tspan><tspan x="-65.45801" y="3.76968" style="white-space: pre; "> </tspan><tspan x="-61.1709" y="3.76968">c</tspan><tspan x="-54.62793" y="3.76968">o</tspan><tspan x="-46.59668" y="3.76968">d</tspan><tspan x="-38.53027" y="3.76968">e</tspan><tspan x="-31.25488" y="3.76968">g</tspan><tspan x="-23.18848" y="3.76968">e</tspan><tspan x="-15.91309" y="3.76968">n</tspan><tspan x="-8.12207" y="3.76968" style="white-space: pre; "> </tspan><tspan x="-3.83496" y="3.76968">·</tspan><tspan x="-0.2334" y="3.76968" style="white-space: pre; "> </tspan><tspan x="4.05371" y="3.76968">s</tspan><tspan x="10.14551" y="3.76968">h</tspan><tspan x="17.93652" y="3.76968">u</tspan><tspan x="25.72754" y="3.76968">t</tspan><tspan x="30.79395" y="3.76968">d</tspan><tspan x="38.86035" y="3.76968">o</tspan><tspan x="46.8916" y="3.76968">w</tspan><tspan x="56.56348" y="3.76968">n</tspan><tspan x="64.35449" y="3.76968" style="white-space: pre; "> </tspan><tspan x="68.6416" y="3.76968">·</tspan><tspan x="72.24316" y="3.76968" style="white-space: pre; "> </tspan><tspan x="76.53027" y="3.76968">h</tspan><tspan x="84.32129" y="3.76968">o</tspan><tspan x="92.35254" y="3.76968">o</tspan><tspan x="100.38379" y="3.76968">k</tspan><tspan x="107.34863" y="3.76968">s</tspan></text>
<rect transform="translate(0,0)" style="stroke: rgb(93,202,165); stroke-width: 0.5; fill: rgb(8,80,65)" x="35" y="120" rx="8" ry="8" width="122" height="56"/>
<text transform="matrix(1 0 0 1 96.293 135.6141)" style="fill: rgb(159,225,203); text-decoration-thickness: 6.6667%; white-space: pre" x="-22.70703" y="4.39796" font-family="'Anthropic Sans', -apple-system, BlinkMacSystemFont, 'Segoe UI', sans-serif" font-size="14" font-style="normal" font-weight="500"><tspan x="-22.70703" y="4.39796">S</tspan><tspan x="-14.08496" y="4.39796">e</tspan><tspan x="-5.64746" y="4.39796">r</tspan><tspan x="1.09473" y="4.39796">v</tspan><tspan x="9.08789" y="4.39796">e</tspan><tspan x="17.52539" y="4.39796">r</tspan></text>
<text transform="matrix(1 0 0 1 96.4063 162.1055)" style="fill: rgb(93,202,165); text-decoration-thickness: 6.6667%; white-space: pre" x="-33.61523" y="-4.09512" font-family="'Anthropic Sans', -apple-system, BlinkMacSystemFont, 'Segoe UI', sans-serif" font-size="12" font-style="normal" font-weight="400"><tspan x="-33.61523" y="-4.09512">s</tspan><tspan x="-27.52344" y="-4.09512">t</tspan><tspan x="-22.45703" y="-4.09512">a</tspan><tspan x="-15.35156" y="-4.09512">n</tspan><tspan x="-7.56055" y="-4.09512">d</tspan><tspan x="0.50586" y="-4.09512">a</tspan><tspan x="7.61133" y="-4.09512">l</tspan><tspan x="11.51758" y="-4.09512">o</tspan><tspan x="19.54883" y="-4.09512">n</tspan><tspan x="27.33984" y="-4.09512">e</tspan><tspan x="-35.39063" y="11.63448">m</tspan><tspan x="-24.05469" y="11.63448">i</tspan><tspan x="-20.14844" y="11.63448">d</tspan><tspan x="-12.08203" y="11.63448">d</tspan><tspan x="-4.01563" y="11.63448">l</tspan><tspan x="-0.10938" y="11.63448">e</tspan><tspan x="7.16602" y="11.63448">w</tspan><tspan x="16.83789" y="11.63448">a</tspan><tspan x="23.94336" y="11.63448">r</tspan><tspan x="29.11523" y="11.63448">e</tspan></text>
<rect transform="translate(0,0)" style="stroke: rgb(93,202,165); stroke-width: 0.5; fill: rgb(8,80,65)" x="168" y="120" rx="8" ry="8" width="122" height="56"/>
<text transform="matrix(1 0 0 1 229.1533 135.6141)" style="fill: rgb(159,225,203); text-decoration-thickness: 6.6667%; white-space: pre" x="-24.84668" y="4.39796" font-family="'Anthropic Sans', -apple-system, BlinkMacSystemFont, 'Segoe UI', sans-serif" font-size="14" font-style="normal" font-weight="500"><tspan x="-24.84668" y="4.39796">L</tspan><tspan x="-17.00391" y="4.39796">o</tspan><tspan x="-7.64355" y="4.39796">g</tspan><tspan x="1.79199" y="4.39796">g</tspan><tspan x="11.22754" y="4.39796">e</tspan><tspan x="19.66504" y="4.39796">r</tspan></text>
<text transform="matrix(1 0 0 1 229.3018 162.1055)" style="fill: rgb(93,202,165); text-decoration-thickness: 6.6667%; white-space: pre" x="-43.02539" y="-4.09512" font-family="'Anthropic Sans', -apple-system, BlinkMacSystemFont, 'Segoe UI', sans-serif" font-size="12" font-style="normal" font-weight="400"><tspan x="-43.02539" y="-4.09512">w</tspan><tspan x="-33.35352" y="-4.09512">o</tspan><tspan x="-25.32227" y="-4.09512">r</tspan><tspan x="-20.15039" y="-4.09512">k</tspan><tspan x="-13.18555" y="-4.09512">e</tspan><tspan x="-5.91016" y="-4.09512">r</tspan><tspan x="-0.73828" y="-4.09512" style="white-space: pre; "> </tspan><tspan x="3.54883" y="-4.09512">t</tspan><tspan x="8.61523" y="-4.09512">h</tspan><tspan x="16.40625" y="-4.09512">r</tspan><tspan x="21.57813" y="-4.09512">e</tspan><tspan x="28.85352" y="-4.09512">a</tspan><tspan x="35.95898" y="-4.09512">d</tspan><tspan x="-24.58496" y="11.63448">r</tspan><tspan x="-19.41309" y="11.63448">o</tspan><tspan x="-11.38184" y="11.63448">t</tspan><tspan x="-6.31543" y="11.63448">a</tspan><tspan x="0.79004" y="11.63448">t</tspan><tspan x="5.85645" y="11.63448">i</tspan><tspan x="9.7627" y="11.63448">o</tspan><tspan x="17.79395" y="11.63448">n</tspan></text>
<rect transform="translate(0,0)" style="stroke: rgb(180,178,169); stroke-width: 0.5; fill: rgb(68,68,65)" x="35" y="192" rx="8" ry="8" width="122" height="40"/>
<text transform="matrix(1 0 0 1 96.4834 208.2407)" style="fill: rgb(180,178,169); text-decoration-thickness: 6.6667%; white-space: pre" x="-34.5166" y="3.76968" font-family="'Anthropic Sans', -apple-system, BlinkMacSystemFont, 'Segoe UI', sans-serif" font-size="12" font-style="normal" font-weight="400"><tspan x="-34.5166" y="3.76968">R</tspan><tspan x="-26.33887" y="3.76968">i</tspan><tspan x="-22.43262" y="3.76968">n</tspan><tspan x="-14.6416" y="3.76968">g</tspan><tspan x="-6.5752" y="3.76968" style="white-space: pre; "> </tspan><tspan x="-2.28809" y="3.76968">b</tspan><tspan x="5.7666" y="3.76968">u</tspan><tspan x="13.55762" y="3.76968">f</tspan><tspan x="18.31348" y="3.76968">f</tspan><tspan x="23.06934" y="3.76968">e</tspan><tspan x="30.34473" y="3.76968">r</tspan></text>
<rect transform="translate(0,0)" style="stroke: rgb(180,178,169); stroke-width: 0.5; fill: rgb(68,68,65)" x="168" y="192" rx="8" ry="8" width="122" height="40"/>
<text transform="matrix(1 0 0 1 229.0156 208.2407)" style="fill: rgb(180,178,169); text-decoration-thickness: 6.6667%; white-space: pre" x="-25.98438" y="3.76968" font-family="'Anthropic Sans', -apple-system, BlinkMacSystemFont, 'Segoe UI', sans-serif" font-size="12" font-style="normal" font-weight="400"><tspan x="-25.98438" y="3.76968">L</tspan><tspan x="-19.33594" y="3.76968">o</tspan><tspan x="-11.30469" y="3.76968">g</tspan><tspan x="-3.23828" y="3.76968" style="white-space: pre; "> </tspan><tspan x="1.04883" y="3.76968">f</tspan><tspan x="5.80469" y="3.76968">i</tspan><tspan x="9.71094" y="3.76968">l</tspan><tspan x="13.61719" y="3.76968">e</tspan><tspan x="20.89258" y="3.76968">s</tspan></text>
<rect transform="translate(0,0)" style="stroke: rgb(175,169,236); stroke-width: 0.5; fill: rgb(60,52,137)" x="345" y="48" rx="8" ry="8" width="300" height="56"/>
<text transform="matrix(1 0 0 1 495.4741 63.6141)" style="fill: rgb(206,203,246); text-decoration-thickness: 6.6667%; white-space: pre" x="-47.02588" y="4.39796" font-family="'Anthropic Sans', -apple-system, BlinkMacSystemFont, 'Segoe UI', sans-serif" font-size="14" font-style="normal" font-weight="500"><tspan x="-47.02588" y="4.39796">T</tspan><tspan x="-39.44287" y="4.39796">r</tspan><tspan x="-33.26123" y="4.39796">a</tspan><tspan x="-24.95361" y="4.39796">c</tspan><tspan x="-17.37061" y="4.39796">k</tspan><tspan x="-9.26807" y="4.39796">e</tspan><tspan x="-0.83057" y="4.39796">r</tspan><tspan x="5.35107" y="4.39796">C</tspan><tspan x="15.04639" y="4.39796">l</tspan><tspan x="19.70361" y="4.39796">i</tspan><tspan x="24.36084" y="4.39796">e</tspan><tspan x="32.79834" y="4.39796">n</tspan><tspan x="41.96729" y="4.39796">t</tspan></text>
<text transform="matrix(1 0 0 1 495.457 84.2407)" style="fill: rgb(175,169,236); text-decoration-thickness: 6.6667%; white-space: pre" x="-112.54297" y="3.76968" font-family="'Anthropic Sans', -apple-system, BlinkMacSystemFont, 'Segoe UI', sans-serif" font-size="12" font-style="normal" font-weight="400"><tspan x="-112.54297" y="3.76968">s</tspan><tspan x="-106.45117" y="3.76968">e</tspan><tspan x="-99.17578" y="3.76968">s</tspan><tspan x="-93.08398" y="3.76968">s</tspan><tspan x="-86.99219" y="3.76968">i</tspan><tspan x="-83.08594" y="3.76968">o</tspan><tspan x="-75.05469" y="3.76968">n</tspan><tspan x="-67.26367" y="3.76968" style="white-space: pre; "> </tspan><tspan x="-62.97656" y="3.76968">·</tspan><tspan x="-59.375" y="3.76968" style="white-space: pre; "> </tspan><tspan x="-55.08789" y="3.76968">c</tspan><tspan x="-48.54492" y="3.76968">o</tspan><tspan x="-40.51367" y="3.76968">n</tspan><tspan x="-32.72266" y="3.76968">t</tspan><tspan x="-27.65625" y="3.76968">e</tspan><tspan x="-20.38086" y="3.76968">x</tspan><tspan x="-13.87305" y="3.76968">t</tspan><tspan x="-8.80664" y="3.76968" style="white-space: pre; "> </tspan><tspan x="-4.51953" y="3.76968">·</tspan><tspan x="-0.91797" y="3.76968" style="white-space: pre; "> </tspan><tspan x="3.36914" y="3.76968">t</tspan><tspan x="8.43555" y="3.76968">i</tspan><tspan x="12.3418" y="3.76968">m</tspan><tspan x="23.67773" y="3.76968">i</tspan><tspan x="27.58398" y="3.76968">n</tspan><tspan x="35.375" y="3.76968">g</tspan><tspan x="43.44141" y="3.76968" style="white-space: pre; "> </tspan><tspan x="47.72852" y="3.76968">·</tspan><tspan x="51.33008" y="3.76968" style="white-space: pre; "> </tspan><tspan x="55.61719" y="3.76968">s</tspan><tspan x="61.70898" y="3.76968">i</tspan><tspan x="65.61523" y="3.76968">n</tspan><tspan x="73.40625" y="3.76968">g</tspan><tspan x="81.47266" y="3.76968">l</tspan><tspan x="85.37891" y="3.76968">e</tspan><tspan x="92.6543" y="3.76968">t</tspan><tspan x="97.7207" y="3.76968">o</tspan><tspan x="105.75195" y="3.76968">n</tspan></text>
<rect transform="translate(0,0)" style="stroke: rgb(175,169,236); stroke-width: 0.5; fill: rgb(60,52,137)" x="349" y="120" rx="6" ry="6" width="52" height="40"/>
<text transform="matrix(1 0 0 1 375.0684 136.2407)" style="fill: rgb(175,169,236); text-decoration-thickness: 6.6667%; white-space: pre" x="-13.43164" y="3.76968" font-family="'Anthropic Sans', -apple-system, BlinkMacSystemFont, 'Segoe UI', sans-serif" font-size="12" font-style="normal" font-weight="400"><tspan x="-13.43164" y="3.76968">c</tspan><tspan x="-6.88867" y="3.76968">l</tspan><tspan x="-2.98242" y="3.76968">i</tspan><tspan x="0.92383" y="3.76968">c</tspan><tspan x="7.4668" y="3.76968">k</tspan></text>
<rect transform="translate(0,0)" style="stroke: rgb(175,169,236); stroke-width: 0.5; fill: rgb(60,52,137)" x="409" y="120" rx="6" ry="6" width="52" height="40"/>
<text transform="matrix(1 0 0 1 435.0107 136.2407)" style="fill: rgb(175,169,236); text-decoration-thickness: 6.6667%; white-space: pre" x="-12.48926" y="3.76968" font-family="'Anthropic Sans', -apple-system, BlinkMacSystemFont, 'Segoe UI', sans-serif" font-size="12" font-style="normal" font-weight="400"><tspan x="-12.48926" y="3.76968">h</tspan><tspan x="-4.69824" y="3.76968">t</tspan><tspan x="0.36816" y="3.76968">t</tspan><tspan x="5.43457" y="3.76968">p</tspan></text>
<rect transform="translate(0,0)" style="stroke: rgb(175,169,236); stroke-width: 0.5; fill: rgb(60,52,137)" x="469" y="120" rx="6" ry="6" width="52" height="40"/>
<text transform="matrix(1 0 0 1 495.0889 136.2407)" style="fill: rgb(175,169,236); text-decoration-thickness: 6.6667%; white-space: pre" x="-14.91113" y="3.76968" font-family="'Anthropic Sans', -apple-system, BlinkMacSystemFont, 'Segoe UI', sans-serif" font-size="12" font-style="normal" font-weight="400"><tspan x="-14.91113" y="3.76968">e</tspan><tspan x="-7.63574" y="3.76968">r</tspan><tspan x="-2.46387" y="3.76968">r</tspan><tspan x="2.70801" y="3.76968">o</tspan><tspan x="10.73926" y="3.76968">r</tspan></text>
<rect transform="translate(0,0)" style="stroke: rgb(175,169,236); stroke-width: 0.5; fill: rgb(60,52,137)" x="529" y="120" rx="6" ry="6" width="52" height="40"/>
<text transform="matrix(1 0 0 1 555.1777 136.2407)" style="fill: rgb(175,169,236); text-decoration-thickness: 6.6667%; white-space: pre" x="-10.32227" y="3.76968" font-family="'Anthropic Sans', -apple-system, BlinkMacSystemFont, 'Segoe UI', sans-serif" font-size="12" font-style="normal" font-weight="400"><tspan x="-10.32227" y="3.76968">n</tspan><tspan x="-2.53125" y="3.76968">a</tspan><tspan x="4.57422" y="3.76968">v</tspan></text>
<rect transform="translate(0,0)" style="stroke: rgb(175,169,236); stroke-width: 0.5; fill: rgb(60,52,137)" x="589" y="120" rx="6" ry="6" width="52" height="40"/>
<text transform="matrix(1 0 0 1 615.165 136.2407)" style="fill: rgb(175,169,236); text-decoration-thickness: 6.6667%; white-space: pre" x="-23.33496" y="3.76968" font-family="'Anthropic Sans', -apple-system, BlinkMacSystemFont, 'Segoe UI', sans-serif" font-size="12" font-style="normal" font-weight="400"><tspan x="-23.33496" y="3.76968">c</tspan><tspan x="-16.79199" y="3.76968">o</tspan><tspan x="-8.76074" y="3.76968">n</tspan><tspan x="-0.96973" y="3.76968">s</tspan><tspan x="5.12207" y="3.76968">o</tspan><tspan x="13.15332" y="3.76968">l</tspan><tspan x="17.05957" y="3.76968">e</tspan></text>
<rect transform="translate(0,0)" style="stroke: rgb(175,169,236); stroke-width: 0.5; fill: rgb(60,52,137)" x="345" y="176" rx="8" ry="8" width="300" height="56"/>
<text transform="matrix(1 0 0 1 495.1504 191.6141)" style="fill: rgb(206,203,246); text-decoration-thickness: 6.6667%; white-space: pre" x="-42.84961" y="4.39796" font-family="'Anthropic Sans', -apple-system, BlinkMacSystemFont, 'Segoe UI', sans-serif" font-size="14" font-style="normal" font-weight="500"><tspan x="-42.84961" y="4.39796">E</tspan><tspan x="-34.60352" y="4.39796">v</tspan><tspan x="-26.61035" y="4.39796">e</tspan><tspan x="-18.17285" y="4.39796">n</tspan><tspan x="-9.00391" y="4.39796">t</tspan><tspan x="-2.94531" y="4.39796">Q</tspan><tspan x="8.63672" y="4.39796">u</tspan><tspan x="17.80566" y="4.39796">e</tspan><tspan x="26.24316" y="4.39796">u</tspan><tspan x="35.41211" y="4.39796">e</tspan></text>
<text transform="matrix(1 0 0 1 495.165 212.2407)" style="fill: rgb(175,169,236); text-decoration-thickness: 6.6667%; white-space: pre" x="-115.83496" y="3.76968" font-family="'Anthropic Sans', -apple-system, BlinkMacSystemFont, 'Segoe UI', sans-serif" font-size="12" font-style="normal" font-weight="400"><tspan x="-115.83496" y="3.76968">b</tspan><tspan x="-107.78027" y="3.76968">a</tspan><tspan x="-100.6748" y="3.76968">t</tspan><tspan x="-95.6084" y="3.76968">c</tspan><tspan x="-89.06543" y="3.76968">h</tspan><tspan x="-81.27441" y="3.76968" style="white-space: pre; "> </tspan><tspan x="-76.9873" y="3.76968">·</tspan><tspan x="-73.38574" y="3.76968" style="white-space: pre; "> </tspan><tspan x="-69.09863" y="3.76968">f</tspan><tspan x="-64.34277" y="3.76968">e</tspan><tspan x="-57.06738" y="3.76968">t</tspan><tspan x="-52.00098" y="3.76968">c</tspan><tspan x="-45.45801" y="3.76968">h</tspan><tspan x="-37.66699" y="3.76968" style="white-space: pre; "> </tspan><tspan x="-33.37988" y="3.76968">P</tspan><tspan x="-25.65918" y="3.76968">O</tspan><tspan x="-15.6123" y="3.76968">S</tspan><tspan x="-8.2373" y="3.76968">T</tspan><tspan x="-0.9502" y="3.76968" style="white-space: pre; "> </tspan><tspan x="3.33691" y="3.76968">·</tspan><tspan x="6.93848" y="3.76968" style="white-space: pre; "> </tspan><tspan x="11.22559" y="3.76968">s</tspan><tspan x="17.31738" y="3.76968">e</tspan><tspan x="24.59277" y="3.76968">n</tspan><tspan x="32.38379" y="3.76968">d</tspan><tspan x="40.4502" y="3.76968">B</tspan><tspan x="48.3291" y="3.76968">e</tspan><tspan x="55.60449" y="3.76968">a</tspan><tspan x="62.70996" y="3.76968">c</tspan><tspan x="69.25293" y="3.76968">o</tspan><tspan x="77.28418" y="3.76968">n</tspan><tspan x="85.0752" y="3.76968" style="white-space: pre; "> </tspan><tspan x="89.3623" y="3.76968">·</tspan><tspan x="92.96387" y="3.76968" style="white-space: pre; "> </tspan><tspan x="97.25098" y="3.76968">W</tspan><tspan x="109.45996" y="3.76968">S</tspan></text>
<rect transform="translate(0,0)" style="stroke: rgb(175,169,236); stroke-width: 0.5; fill: rgb(60,52,137)" x="345" y="248" rx="8" ry="8" width="300" height="40"/>
<text transform="matrix(1 0 0 1 495.209 264.2407)" style="fill: rgb(175,169,236); text-decoration-thickness: 6.6667%; white-space: pre" x="-124.29102" y="3.76968" font-family="'Anthropic Sans', -apple-system, BlinkMacSystemFont, 'Segoe UI', sans-serif" font-size="12" font-style="normal" font-weight="400"><tspan x="-124.29102" y="3.76968">D</tspan><tspan x="-114.87695" y="3.76968">e</tspan><tspan x="-107.60156" y="3.76968">b</tspan><tspan x="-99.54688" y="3.76968">u</tspan><tspan x="-91.75586" y="3.76968">g</tspan><tspan x="-83.68945" y="3.76968">O</tspan><tspan x="-73.64258" y="3.76968">v</tspan><tspan x="-66.89453" y="3.76968">e</tspan><tspan x="-59.61914" y="3.76968">r</tspan><tspan x="-54.44727" y="3.76968">l</tspan><tspan x="-50.54102" y="3.76968">a</tspan><tspan x="-43.43555" y="3.76968">y</tspan><tspan x="-36.62891" y="3.76968" style="white-space: pre; "> </tspan><tspan x="-32.3418" y="3.76968">·</tspan><tspan x="-28.74023" y="3.76968" style="white-space: pre; "> </tspan><tspan x="-24.45313" y="3.76968">i</tspan><tspan x="-20.54688" y="3.76968">n</tspan><tspan x="-12.75586" y="3.76968">-</tspan><tspan x="-6.95703" y="3.76968">b</tspan><tspan x="1.09766" y="3.76968">r</tspan><tspan x="6.26953" y="3.76968">o</tspan><tspan x="14.30078" y="3.76968">w</tspan><tspan x="23.97266" y="3.76968">s</tspan><tspan x="30.06445" y="3.76968">e</tspan><tspan x="37.33984" y="3.76968">r</tspan><tspan x="42.51172" y="3.76968" style="white-space: pre; "> </tspan><tspan x="46.79883" y="3.76968">e</tspan><tspan x="54.07422" y="3.76968">v</tspan><tspan x="60.82227" y="3.76968">e</tspan><tspan x="68.09766" y="3.76968">n</tspan><tspan x="75.88867" y="3.76968">t</tspan><tspan x="80.95508" y="3.76968" style="white-space: pre; "> </tspan><tspan x="85.24219" y="3.76968">v</tspan><tspan x="91.99023" y="3.76968">i</tspan><tspan x="95.89648" y="3.76968">e</tspan><tspan x="103.17188" y="3.76968">w</tspan><tspan x="112.84375" y="3.76968">e</tspan><tspan x="120.11914" y="3.76968">r</tspan></text>
<rect transform="translate(0,0)" style="stroke: rgb(239,159,39); stroke-width: 0.5; fill: rgb(99,56,6)" x="140" y="350" rx="14" ry="14" width="400" height="115"/>
<text transform="matrix(1 0 0 1 340.4717 368.6141)" style="fill: rgb(250,199,117); text-decoration-thickness: 6.6667%; white-space: pre" x="-54.52832" y="4.39796" font-family="'Anthropic Sans', -apple-system, BlinkMacSystemFont, 'Segoe UI', sans-serif" font-size="14" font-style="normal" font-weight="500"><tspan x="-54.52832" y="4.39796">D</tspan><tspan x="-43.48633" y="4.39796">a</tspan><tspan x="-35.17871" y="4.39796">s</tspan><tspan x="-28.14258" y="4.39796">h</tspan><tspan x="-18.99414" y="4.39796">b</tspan><tspan x="-9.55859" y="4.39796">o</tspan><tspan x="-0.3623" y="4.39796">a</tspan><tspan x="7.94531" y="4.39796">r</tspan><tspan x="14.00391" y="4.39796">d</tspan><tspan x="23.43945" y="4.39796" style="white-space: pre; "> </tspan><tspan x="28.28809" y="4.39796">S</tspan><tspan x="36.91016" y="4.39796">P</tspan><tspan x="45.12891" y="4.39796">A</tspan></text>
<text transform="matrix(1 0 0 1 340.2373 393.2407)" style="fill: rgb(239,159,39); text-decoration-thickness: 6.6667%; white-space: pre" x="-120.7627" y="3.76968" font-family="'Anthropic Sans', -apple-system, BlinkMacSystemFont, 'Segoe UI', sans-serif" font-size="12" font-style="normal" font-weight="400"><tspan x="-120.7627" y="3.76968">r</tspan><tspan x="-115.59082" y="3.76968">o</tspan><tspan x="-107.55957" y="3.76968">u</tspan><tspan x="-99.76855" y="3.76968">t</tspan><tspan x="-94.70215" y="3.76968">e</tspan><tspan x="-87.42676" y="3.76968">r</tspan><tspan x="-82.25488" y="3.76968" style="white-space: pre; "> </tspan><tspan x="-77.96777" y="3.76968">·</tspan><tspan x="-74.36621" y="3.76968" style="white-space: pre; "> </tspan><tspan x="-70.0791" y="3.76968">s</tspan><tspan x="-63.9873" y="3.76968">t</tspan><tspan x="-58.9209" y="3.76968">a</tspan><tspan x="-51.81543" y="3.76968">t</tspan><tspan x="-46.74902" y="3.76968">e</tspan><tspan x="-39.47363" y="3.76968" style="white-space: pre; "> </tspan><tspan x="-35.18652" y="3.76968">·</tspan><tspan x="-31.58496" y="3.76968" style="white-space: pre; "> </tspan><tspan x="-27.29785" y="3.76968">a</tspan><tspan x="-20.19238" y="3.76968">p</tspan><tspan x="-12.1377" y="3.76968">i</tspan><tspan x="-8.23145" y="3.76968" style="white-space: pre; "> </tspan><tspan x="-3.94434" y="3.76968">·</tspan><tspan x="-0.34277" y="3.76968" style="white-space: pre; "> </tspan><tspan x="3.94434" y="3.76968">a</tspan><tspan x="11.0498" y="3.76968">g</tspan><tspan x="19.11621" y="3.76968">g</tspan><tspan x="27.18262" y="3.76968">r</tspan><tspan x="32.35449" y="3.76968">e</tspan><tspan x="39.62988" y="3.76968">g</tspan><tspan x="47.69629" y="3.76968">a</tspan><tspan x="54.80176" y="3.76968">t</tspan><tspan x="59.86816" y="3.76968">i</tspan><tspan x="63.77441" y="3.76968">o</tspan><tspan x="71.80566" y="3.76968">n</tspan><tspan x="79.59668" y="3.76968">s</tspan><tspan x="85.68848" y="3.76968" style="white-space: pre; "> </tspan><tspan x="89.97559" y="3.76968">·</tspan><tspan x="93.57715" y="3.76968" style="white-space: pre; "> </tspan><tspan x="97.86426" y="3.76968">p</tspan><tspan x="105.91895" y="3.76968">o</tspan><tspan x="113.9502" y="3.76968">l</tspan><tspan x="117.85645" y="3.76968">l</tspan></text>
<text transform="matrix(1 0 0 1 340.4268 414.2407)" style="fill: rgb(239,159,39); text-decoration-thickness: 6.6667%; white-space: pre" x="-151.57324" y="3.76968" font-family="'Anthropic Sans', -apple-system, BlinkMacSystemFont, 'Segoe UI', sans-serif" font-size="12" font-style="normal" font-weight="400"><tspan x="-151.57324" y="3.76968">h</tspan><tspan x="-143.78223" y="3.76968">e</tspan><tspan x="-136.50684" y="3.76968">a</tspan><tspan x="-129.40137" y="3.76968">d</tspan><tspan x="-121.33496" y="3.76968">e</tspan><tspan x="-114.05957" y="3.76968">r</tspan><tspan x="-108.8877" y="3.76968" style="white-space: pre; "> </tspan><tspan x="-104.60059" y="3.76968">·</tspan><tspan x="-100.99902" y="3.76968" style="white-space: pre; "> </tspan><tspan x="-96.71191" y="3.76968">k</tspan><tspan x="-89.74707" y="3.76968">p</tspan><tspan x="-81.69238" y="3.76968">i</tspan><tspan x="-77.78613" y="3.76968">-</tspan><tspan x="-71.9873" y="3.76968">c</tspan><tspan x="-65.44434" y="3.76968">a</tspan><tspan x="-58.33887" y="3.76968">r</tspan><tspan x="-53.16699" y="3.76968">d</tspan><tspan x="-45.10059" y="3.76968">s</tspan><tspan x="-39.00879" y="3.76968" style="white-space: pre; "> </tspan><tspan x="-34.72168" y="3.76968">·</tspan><tspan x="-31.12012" y="3.76968" style="white-space: pre; "> </tspan><tspan x="-26.83301" y="3.76968">c</tspan><tspan x="-20.29004" y="3.76968">h</tspan><tspan x="-12.49902" y="3.76968">a</tspan><tspan x="-5.39355" y="3.76968">r</tspan><tspan x="-0.22168" y="3.76968">t</tspan><tspan x="4.84473" y="3.76968" style="white-space: pre; "> </tspan><tspan x="9.13184" y="3.76968">·</tspan><tspan x="12.7334" y="3.76968" style="white-space: pre; "> </tspan><tspan x="17.02051" y="3.76968">e</tspan><tspan x="24.2959" y="3.76968">v</tspan><tspan x="31.04395" y="3.76968">e</tspan><tspan x="38.31934" y="3.76968">n</tspan><tspan x="46.11035" y="3.76968">t</tspan><tspan x="51.17676" y="3.76968">s</tspan><tspan x="57.26855" y="3.76968">-</tspan><tspan x="63.06738" y="3.76968">t</tspan><tspan x="68.13379" y="3.76968">a</tspan><tspan x="75.23926" y="3.76968">b</tspan><tspan x="83.29395" y="3.76968">l</tspan><tspan x="87.2002" y="3.76968">e</tspan><tspan x="94.47559" y="3.76968" style="white-space: pre; "> </tspan><tspan x="98.7627" y="3.76968">·</tspan><tspan x="102.36426" y="3.76968" style="white-space: pre; "> </tspan><tspan x="106.65137" y="3.76968">t</tspan><tspan x="111.71777" y="3.76968">o</tspan><tspan x="119.74902" y="3.76968">p</tspan><tspan x="127.80371" y="3.76968">-</tspan><tspan x="133.60254" y="3.76968">l</tspan><tspan x="137.50879" y="3.76968">i</tspan><tspan x="141.41504" y="3.76968">s</tspan><tspan x="147.50684" y="3.76968">t</tspan></text>
<line transform="translate(0,0)" style="stroke: rgb(156,154,146); stroke-width: 1.5; fill: none" x1="295" y1="76" x2="345" y2="76"/>
<path transform="translate(0,0)" style="stroke: rgb(156,154,146); stroke-width: 1.5; fill: none" stroke-linecap="round" d="M 345 204 L 315 204 L 315 250 L 162 250 L 162 150 L 159 150"/>
<path transform="translate(0,0)" style="stroke: rgb(156,154,146); stroke-width: 1.5; fill: none" stroke-linecap="round" d="M 96 232 L 96 244 L 250 244 L 250 350"/>
<path transform="translate(0,0)" style="stroke: rgb(156,154,146); stroke-width: 1.5; stroke-dasharray: 4 2; fill: none" stroke-linecap="round" d="M 430 350 L 430 334 L 164 334 L 164 280 L 162 278"/>
<text transform="matrix(1 0 0 1 323.1255 66.8672)" style="fill: rgb(194,192,182); text-decoration-thickness: 6.6667%; white-space: pre" x="-18.11719" y="3.1414" font-family="'Anthropic Sans', -apple-system, BlinkMacSystemFont, 'Segoe UI', sans-serif" font-size="10" font-style="normal" font-weight="bold"><tspan x="-18.11719" y="3.1414">i</tspan><tspan x="-14.27539" y="3.1414">n</tspan><tspan x="-7.22559" y="3.1414">j</tspan><tspan x="-3.38379" y="3.1414">e</tspan><tspan x="3.02637" y="3.1414">c</tspan><tspan x="8.82617" y="3.1414">t</tspan><tspan x="13.71777" y="3.1414">s</tspan></text>
<g transform="matrix(1 0 0 1 344.62106 75.97719)">
<g transform="translate(0,0)" style="">
<path transform="translate(0,0)" style="stroke: rgb(156,154,146); stroke-width: 2; fill: none" vector-effect="non-scaling-stroke" stroke-linecap="round" d="M1.7274 0.6442L-1.8115-2.3892"/>
<path transform="translate(0,0)" style="stroke: rgb(156,154,146); stroke-width: 2; fill: none" vector-effect="non-scaling-stroke" stroke-linecap="round" d="M1.8115-0.6442L-1.7274 2.3892"/>
</g>
</g>
<g transform="matrix(1 0 0 1 250.22837 349.27576)">
<g transform="translate(0,0)" style="">
<path transform="translate(0,0)" style="stroke: rgb(156,154,146); stroke-width: 2; fill: none" vector-effect="non-scaling-stroke" stroke-linecap="round" d="M-0.6047 2.774L4.1521-2.8163"/>
<path transform="translate(0,0)" style="stroke: rgb(156,154,146); stroke-width: 2; fill: none" vector-effect="non-scaling-stroke" stroke-linecap="round" d="M0.6248 2.7991L-4.1722-2.7568"/>
</g>
</g>
<g transform="matrix(1 0 0 -1 164.16415 278.47733)">
<g transform="translate(0,0)" style="">
<path transform="translate(0,0)" style="stroke: rgb(156,154,146); stroke-width: 2; fill: none" vector-effect="non-scaling-stroke" stroke-linecap="round" d="M-0.6047 2.774L4.1521-2.8163"/>
<path transform="translate(0,0)" style="stroke: rgb(156,154,146); stroke-width: 2; fill: none" vector-effect="non-scaling-stroke" stroke-linecap="round" d="M0.6248 2.7991L-4.1722-2.7568"/>
</g>
</g>
<g transform="matrix(0.01404 0.69138 -0.57905 0.01176 158.93825 149.76926)">
<g transform="translate(0,0)" style="">
<path transform="translate(0,0)" style="stroke: rgb(156,154,146); stroke-width: 2; fill: none" vector-effect="non-scaling-stroke" stroke-linecap="round" d="M-0.6047 2.774L4.1521-2.8163"/>
<path transform="translate(0,0)" style="stroke: rgb(156,154,146); stroke-width: 2; fill: none" vector-effect="non-scaling-stroke" stroke-linecap="round" d="M0.6248 2.7991L-4.1722-2.7568"/>
</g>
</g>
</svg>